<?xml version="1.0" encoding="UTF-8" standalone="no"?>
<!-- Generator: Adobe Illustrator 23.0.3, SVG Export Plug-In . SVG Version: 6.00 Build 0)  -->

<svg
   version="1.1"
   id="Layer_1"
   x="0px"
   y="0px"
   viewBox="0 0 8.375 15.275"
   xml:space="preserve"
   sodipodi:docname="arrow-left.svg"
   width="8.375"
   height="15.275"
   inkscape:version="1.1 (c68e22c387, 2021-05-23)"
   xmlns:inkscape="http://www.inkscape.org/namespaces/inkscape"
   xmlns:sodipodi="http://sodipodi.sourceforge.net/DTD/sodipodi-0.dtd"
   xmlns="http://www.w3.org/2000/svg"
   xmlns:svg="http://www.w3.org/2000/svg"><defs
   id="defs7" /><sodipodi:namedview
   id="namedview5"
   pagecolor="#ffffff"
   bordercolor="#666666"
   borderopacity="1.0"
   inkscape:pageshadow="2"
   inkscape:pageopacity="0.0"
   inkscape:pagecheckerboard="0"
   showgrid="false"
   fit-margin-top="0"
   fit-margin-left="0"
   fit-margin-right="0"
   fit-margin-bottom="0"
   inkscape:zoom="6.34375"
   inkscape:cx="-32.078818"
   inkscape:cy="16.157635"
   inkscape:window-width="1920"
   inkscape:window-height="1001"
   inkscape:window-x="-9"
   inkscape:window-y="-9"
   inkscape:window-maximized="1"
   inkscape:current-layer="Layer_1" />
<path
   id="path2"
   d="m 7.0996094,0 c -0.325,0 -0.6503906,0.125 -0.9003906,0.375 L 0.80078125,5.9746094 C 0.30078125,6.4746094 0,7.0753906 0,7.7753906 c 0,0.7 0.30078125,1.2988282 0.80078125,1.7988282 L 6.0996094,14.875 C 6.3996094,15.175 6.7,15.275391 7,15.275391 c 0.3,0 0.6007812,-0.200391 0.8007812,-0.400391 0.5,-0.5 0.5,-1.300781 0,-1.800781 L 2.5,7.7753906 1.5996094,8.6757812 l 0.9003906,-1 5.5,-5.5 C 8.5,1.6757813 8.5,0.875 8,0.375 7.75,0.125 7.4246094,0 7.0996094,0 Z" />
</svg>
