<?xml version="1.0" encoding="UTF-8" standalone="no"?>
<!-- Generator: Adobe Illustrator 23.0.3, SVG Export Plug-In . SVG Version: 6.00 Build 0)  -->

<svg
   version="1.1"
   id="Layer_1"
   x="0px"
   y="0px"
   viewBox="0 0 8.4750004 15.275"
   xml:space="preserve"
   sodipodi:docname="arrow-right.svg"
   width="8.4750004"
   height="15.275"
   inkscape:version="1.1 (c68e22c387, 2021-05-23)"
   xmlns:inkscape="http://www.inkscape.org/namespaces/inkscape"
   xmlns:sodipodi="http://sodipodi.sourceforge.net/DTD/sodipodi-0.dtd"
   xmlns="http://www.w3.org/2000/svg"
   xmlns:svg="http://www.w3.org/2000/svg"><defs
   id="defs7" /><sodipodi:namedview
   id="namedview5"
   pagecolor="#ffffff"
   bordercolor="#666666"
   borderopacity="1.0"
   inkscape:pageshadow="2"
   inkscape:pageopacity="0.0"
   inkscape:pagecheckerboard="0"
   showgrid="false"
   fit-margin-top="0"
   fit-margin-left="0"
   fit-margin-right="0"
   fit-margin-bottom="0"
   inkscape:zoom="6.34375"
   inkscape:cx="-45.950739"
   inkscape:cy="9.3793103"
   inkscape:window-width="1920"
   inkscape:window-height="1001"
   inkscape:window-x="-9"
   inkscape:window-y="-9"
   inkscape:window-maximized="1"
   inkscape:current-layer="Layer_1" />
<path
   id="path2"
   style="color:#000000;fill:#000000;-inkscape-stroke:none"
   d="m 1.4746094,0 c -0.325,0 -0.65039065,0.125 -0.90039065,0.375 -0.5,0.5 -0.5,1.3007812 0,1.8007812 L 5.875,7.4746094 6.7753906,6.5742188 l -0.9003906,1 -5.5,5.5000002 c -0.5,0.5 -0.5,1.300781 0,1.800781 0.3,0.3 0.60039062,0.400391 0.9003906,0.400391 0.3,0 0.6003906,-0.100782 0.9003906,-0.300782 l 5.5,-5.6992184 c 0.5,-0.5 0.7988282,-1.1007812 0.7988282,-1.8007812 0,-0.7 -0.2988282,-1.2988282 -0.7988282,-1.7988282 L 2.375,0.375 C 2.125,0.125 1.7996094,0 1.4746094,0 Z" />
</svg>
