<?xml version="1.0" encoding="UTF-8" standalone="no"?>
<!-- Generator: Adobe Illustrator 23.0.3, SVG Export Plug-In . SVG Version: 6.00 Build 0)  -->

<svg
   version="1.1"
   id="Layer_1"
   x="0px"
   y="0px"
   viewBox="0 0 22.340685 20.33783"
   xml:space="preserve"
   sodipodi:docname="basket.svg"
   width="22.340685"
   height="20.33783"
   inkscape:version="1.1 (c68e22c387, 2021-05-23)"
   xmlns:inkscape="http://www.inkscape.org/namespaces/inkscape"
   xmlns:sodipodi="http://sodipodi.sourceforge.net/DTD/sodipodi-0.dtd"
   xmlns="http://www.w3.org/2000/svg"
   xmlns:svg="http://www.w3.org/2000/svg"><defs
   id="defs9" /><sodipodi:namedview
   id="namedview7"
   pagecolor="#ffffff"
   bordercolor="#666666"
   borderopacity="1.0"
   inkscape:pageshadow="2"
   inkscape:pageopacity="0.0"
   inkscape:pagecheckerboard="0"
   showgrid="false"
   fit-margin-top="0"
   fit-margin-left="0"
   fit-margin-right="0"
   fit-margin-bottom="0"
   inkscape:zoom="16.916667"
   inkscape:cx="18.768473"
   inkscape:cy="14.571429"
   inkscape:window-width="1920"
   inkscape:window-height="1001"
   inkscape:window-x="-9"
   inkscape:window-y="-9"
   inkscape:window-maximized="1"
   inkscape:current-layer="Layer_1" />
<style
   type="text/css"
   id="style2">
	.st0{fill:#151515;}
</style>
<path
   id="path4"
   style="color:#000000;fill:#151515;-inkscape-stroke:none"
   d="M 8.8554688,0.00585938 C 8.4931641,0.04394531 8.125,0.26367188 7.875,0.63867188 L 5.375,5.1386719 H 1.9746094 c -0.3,0 -0.6003907,0.099219 -0.9003906,0.1992187 C 0.77421875,5.5378906 0.575,5.7375 0.375,5.9375 c -0.2,0.2 -0.30078125,0.5007813 -0.30078125,0.8007812 -0.1,0.3 -0.1,0.6003907 0,0.9003907 L 2.6757812,18.238281 c 0.1000001,0.6 0.4984376,1.1 0.8984376,1.5 0.5,0.4 1.1015625,0.59961 1.6015624,0.59961 H 16.974609 c 0.6,0 1.19961,-0.19961 1.59961,-0.59961 0.5,-0.4 0.80039,-0.9 0.90039,-1.5 L 22.175781,7.6386719 c 0.2,-0.3 0.19961,-0.6003907 0.09961,-0.9003907 0,-0.2999999 -0.100782,-0.6007812 -0.300782,-0.8007812 -0.2,-0.2 -0.399218,-0.3996094 -0.699218,-0.5996094 -0.3,-0.1 -0.600391,-0.1992187 -0.900391,-0.1992187 h -3.699219 l -2.5,-4.50000002 c -0.3,-0.60000001 -1.101172,-0.8 -1.701172,-0.5 -0.6,0.29999999 -0.8,1.09921872 -0.5,1.69921872 l 1.800782,3.3007813 H 8.1757812 L 9.9746094,1.8378906 c 0.2999996,-0.6 0.1,-1.39921872 -0.5,-1.69921872 -0.1875,-0.1125 -0.4017578,-0.15566407 -0.6191406,-0.1328125 z M 2.6757812,7.6386719 H 19.775391 l -2.5,10.0000001 c -0.1,0.1 -0.101172,0.09961 -0.201172,0.09961 H 5.2753906 5.1757812 l -0.1015624,-0.09961 z" />
</svg>
