<?xml version="1.0" encoding="UTF-8" standalone="no"?>
<!-- Generator: Adobe Illustrator 23.0.3, SVG Export Plug-In . SVG Version: 6.00 Build 0)  -->

<svg
   version="1.1"
   id="Layer_1"
   x="0px"
   y="0px"
   viewBox="0 0 13.3 15.3"
   xml:space="preserve"
   sodipodi:docname="compare.svg"
   width="13.3"
   height="15.3"
   inkscape:version="1.1 (c68e22c387, 2021-05-23)"
   xmlns:inkscape="http://www.inkscape.org/namespaces/inkscape"
   xmlns:sodipodi="http://sodipodi.sourceforge.net/DTD/sodipodi-0.dtd"
   xmlns="http://www.w3.org/2000/svg"
   xmlns:svg="http://www.w3.org/2000/svg"><defs
   id="defs17" /><sodipodi:namedview
   id="namedview15"
   pagecolor="#ffffff"
   bordercolor="#666666"
   borderopacity="1.0"
   inkscape:pageshadow="2"
   inkscape:pageopacity="0.0"
   inkscape:pagecheckerboard="0"
   showgrid="false"
   fit-margin-top="0"
   fit-margin-left="0"
   fit-margin-right="0"
   fit-margin-bottom="0"
   inkscape:zoom="16.887374"
   inkscape:cx="6.3064868"
   inkscape:cy="7.6092353"
   inkscape:window-width="1920"
   inkscape:window-height="1001"
   inkscape:window-x="-9"
   inkscape:window-y="-9"
   inkscape:window-maximized="1"
   inkscape:current-layer="Layer_1" />
<path
   id="path2"
   d="M 2.3007812,0 C 1.0007813,0 0,1.0007813 0,2.3007812 V 5 C 0,6.3 1.0007813,7.3007812 2.3007812,7.3007812 H 5 C 6.2,7.3007813 7.3007812,6.2 7.3007812,5 V 4.9003906 2.3007812 C 7.3007813,1.0007813 6.3,0 5,0 Z m 5,2.3007812 c 0,0.6000001 0.4000001,1 1,1 h 3.9999998 c 0.5,1e-7 1,-0.3999999 1,-1 0,-0.6 -0.4,-1 -1,-1 H 8.3007812 c -0.5999999,0 -1,0.4 -1,1 z m 0,2.5996094 c 0,0.6 0.4000001,1 1,1 H 11 c 0.5,0 1,-0.4 1,-1 0,-0.6 -0.4,-1 -1,-1 H 8.3007812 c -0.5999999,0 -1,0.4 -1,1 z m -5,-3 V 2 H 5 C 5.2,2 5.3007812,2.1007813 5.3007812,2.3007812 V 5 C 5.3007813,5.2 5.2,5.3007812 5,5.3007812 H 2.3007812 C 2.1007812,5.3007813 2,5.2 2,5 V 2.3007812 c 0,-0.2 0.1007813,-0.4003906 0.3007812,-0.4003906 z M 2.3007812,8 C 1.0007813,8 0,9.0007812 0,10.300781 V 13 c 0,1.3 1.0007813,2.300781 2.3007812,2.300781 H 5 C 6.2,15.300781 7.3007812,14.2 7.3007812,13 v -0.09961 -2.59961 C 7.3007813,9.0007812 6.3,8 5,8 Z m 5,2.300781 c 0,0.6 0.4000001,1 1,1 h 3.9999998 c 0.5,0 1,-0.4 1,-1 0,-0.5999997 -0.4,-0.9999998 -1,-0.9999998 H 8.3007812 c -0.5999999,0 -1,0.4000001 -1,0.9999998 z m 0,2.59961 c 0,0.6 0.4000001,1 1,1 H 11 c 0.5,0 1,-0.4 1,-1 0,-0.6 -0.4,-1 -1,-1 H 8.3007812 c -0.5999999,0 -1,0.4 -1,1 z m -5,-3.0000004 H 5 c 0.2,0 0.3007812,0.098828 0.3007812,0.2988284 v 2.701172 C 5.3007813,13.100391 5.2,13.199219 5,13.199219 H 2.3007812 C 2.1007812,13.199219 2,13.100391 2,12.900391 V 10.199219 C 2,9.9992188 2.1007813,9.9003906 2.3007812,9.9003906 Z" />





</svg>
