<?xml version="1.0" encoding="UTF-8" standalone="no"?>
<!-- Generator: Adobe Illustrator 23.0.3, SVG Export Plug-In . SVG Version: 6.00 Build 0)  -->

<svg
   version="1.1"
   id="Layer_1"
   x="0px"
   y="0px"
   viewBox="0 0 15.3 13.4"
   xml:space="preserve"
   sodipodi:docname="heart.svg"
   width="15.3"
   height="13.4"
   inkscape:version="1.1 (c68e22c387, 2021-05-23)"
   xmlns:inkscape="http://www.inkscape.org/namespaces/inkscape"
   xmlns:sodipodi="http://sodipodi.sourceforge.net/DTD/sodipodi-0.dtd"
   xmlns="http://www.w3.org/2000/svg"
   xmlns:svg="http://www.w3.org/2000/svg"><defs
   id="defs7" /><sodipodi:namedview
   id="namedview5"
   pagecolor="#ffffff"
   bordercolor="#666666"
   borderopacity="1.0"
   inkscape:pageshadow="2"
   inkscape:pageopacity="0.0"
   inkscape:pagecheckerboard="0"
   showgrid="false"
   fit-margin-top="0"
   fit-margin-left="0"
   fit-margin-right="0"
   fit-margin-bottom="0"
   inkscape:zoom="23.882353"
   inkscape:cx="7.3066502"
   inkscape:cy="6.7204433"
   inkscape:window-width="1920"
   inkscape:window-height="1001"
   inkscape:window-x="-9"
   inkscape:window-y="-9"
   inkscape:window-maximized="1"
   inkscape:current-layer="Layer_1" />
<path
   id="path2"
   style="color:#000000;fill:#000000;-inkscape-stroke:none"
   d="m 4.4003906,0 c -1.2,0 -2.2996093,0.50078125 -3.0996094,1.3007812 C 0.50078125,2.1007812 0,3.3003906 0,4.4003906 0,5.5003906 0.39921875,6.6 1.1992188,7.5 l 5.7011718,5.599609 c 0.2,0.2 0.3992188,0.300782 0.6992188,0.300782 0.3,0 0.5011718,-0.101172 0.7011718,-0.201172 L 14,7.5 C 14.8,6.6 15.300781,5.6003906 15.300781,4.4003906 15.300781,3.2003906 14.8,2.1007813 14,1.3007812 13.2,0.50078125 12.100391,0 10.900391,0 9.7003906,0 8.6007813,0.50078125 7.8007812,1.3007812 L 7.6992188,1.5 7.5,1.3007812 C 6.7,0.50078125 5.6003906,0 4.4003906,0 Z m 0,2 C 5.0003906,2 5.6,2.1992188 6,2.6992188 L 6.9003906,3.5 c 0.4,0.4 1.0003906,0.4 1.4003906,0 l 1,-0.8007812 c 0.8999998,-0.9 2.4984378,-0.9 3.3984378,0 0.5,0.4999999 0.701172,1.1011718 0.701172,1.7011718 0,0.6 -0.201172,1.1992188 -0.701172,1.6992188 l -5.0000002,4.9999996 -5,-4.9999996 C 2.1992187,5.5996094 2,5.1003906 2,4.4003906 2,3.7003906 2.1992188,3.0992187 2.6992188,2.6992188 3.0992187,2.1992187 3.7003906,2 4.4003906,2 Z" />
</svg>
