<?xml version="1.0" encoding="UTF-8" standalone="no"?>
<svg
   width="14.332031"
   height="14.332031"
   viewBox="0 0 14.332031 14.332031"
   fill="none"
   version="1.1"
   id="svg10"
   sodipodi:docname="list-view.svg"
   inkscape:version="1.1 (c68e22c387, 2021-05-23)"
   xmlns:inkscape="http://www.inkscape.org/namespaces/inkscape"
   xmlns:sodipodi="http://sodipodi.sourceforge.net/DTD/sodipodi-0.dtd"
   xmlns="http://www.w3.org/2000/svg"
   xmlns:svg="http://www.w3.org/2000/svg">
  <defs
     id="defs14" />
  <sodipodi:namedview
     id="namedview12"
     pagecolor="#ffffff"
     bordercolor="#666666"
     borderopacity="1.0"
     inkscape:pageshadow="2"
     inkscape:pageopacity="0.0"
     inkscape:pagecheckerboard="0"
     showgrid="false"
     fit-margin-top="0"
     fit-margin-left="0"
     fit-margin-right="0"
     fit-margin-bottom="0"
     inkscape:zoom="25.375"
     inkscape:cx="5.3793103"
     inkscape:cy="2.9753695"
     inkscape:window-width="1920"
     inkscape:window-height="1001"
     inkscape:window-x="-9"
     inkscape:window-y="-9"
     inkscape:window-maximized="1"
     inkscape:current-layer="svg10" />
  <path
     id="path2"
     style="color:#000000;fill:#a9a9a9;stroke-linecap:round;stroke-linejoin:round;-inkscape-stroke:none"
     d="M 1.8320312,0 C 0.82542942,0 0,0.82543402 0,1.8320312 V 10.5 v 2 c -2e-8,1.006547 0.82541132,1.832032 1.8320312,1.832032 H 12.5 c 1.006633,0 1.832032,-0.825508 1.832032,-1.832032 v -2 -8.6679688 C 14.332032,0.82545662 13.506615,0 12.5,0 Z m 0,1 H 12.5 c 0.466184,0 0.832032,0.3658473 0.832032,0.8320312 v 1.5 H 1 v -1.5 C 1,1.36587 1.3658745,1 1.8320312,1 Z M 1,4.3320312 H 13.332032 V 6.6660156 H 1 Z m 0,3.3339844 h 12.332032 v 2.333984 H 1 Z M 1,11 h 12.332032 v 1.5 c 0,0.466075 -0.365866,0.832032 -0.832032,0.832032 H 1.8320312 C 1.3658926,13.332032 1,12.966052 1,12.5 Z" />
</svg>
