<?xml version="1.0" encoding="UTF-8" standalone="no"?>
<!-- Generator: Adobe Illustrator 23.0.3, SVG Export Plug-In . SVG Version: 6.00 Build 0)  -->

<svg
   version="1.1"
   id="Layer_1"
   x="0px"
   y="0px"
   viewBox="0 0 12.725 12.8"
   xml:space="preserve"
   sodipodi:docname="search.svg"
   width="12.725"
   height="12.8"
   inkscape:version="1.1 (c68e22c387, 2021-05-23)"
   xmlns:inkscape="http://www.inkscape.org/namespaces/inkscape"
   xmlns:sodipodi="http://sodipodi.sourceforge.net/DTD/sodipodi-0.dtd"
   xmlns="http://www.w3.org/2000/svg"
   xmlns:svg="http://www.w3.org/2000/svg"><defs
   id="defs9" /><sodipodi:namedview
   id="namedview7"
   pagecolor="#ffffff"
   bordercolor="#666666"
   borderopacity="1.0"
   inkscape:pageshadow="2"
   inkscape:pageopacity="0.0"
   inkscape:pagecheckerboard="0"
   showgrid="false"
   fit-margin-top="0"
   fit-margin-left="0"
   fit-margin-right="0"
   fit-margin-bottom="0"
   inkscape:zoom="17.942835"
   inkscape:cx="6.1027147"
   inkscape:cy="6.7157728"
   inkscape:window-width="1920"
   inkscape:window-height="1001"
   inkscape:window-x="-9"
   inkscape:window-y="-9"
   inkscape:window-maximized="1"
   inkscape:current-layer="Layer_1" />
<style
   type="text/css"
   id="style2">
	.st0{fill:#151515;}
</style>
<path
   id="path4"
   style="color:#000000;fill:#151515;-inkscape-stroke:none"
   d="m 7.3242188,0 c -3,0 -5.3984375,2.4003906 -5.3984376,5.4003906 0,1.2 0.3996094,2.3988282 1.0996094,3.2988282 L 0.22460938,11.5 c -0.30000001,0.3 -0.30000001,0.799609 0,1.099609 0.1,0.1 0.3,0.201172 0.5,0.201172 0.19999999,0 0.40000002,-0.101172 0.50000002,-0.201172 L 4.125,9.8007812 c 0.9,0.6999998 1.9992188,1.0996098 3.1992188,1.0996098 3.0000002,0 5.4003902,-2.400391 5.4003902,-5.400391 0,-3 -2.40039,-5.5 -5.4003902,-5.5 z m 0,1.5 c 2.1999999,0 3.9003902,1.8003906 3.9003902,3.9003906 0,2.1 -1.7003903,4 -3.9003902,4 C 5.1242187,9.4003906 3.4257813,7.6 3.4257812,5.5 c 0,-2.1 1.6984376,-4 3.8984376,-4 z" />
</svg>
