<?xml version="1.0" encoding="UTF-8" standalone="no"?>
<svg
   width="13.394901"
   height="12.773429"
   viewBox="0 0 13.394901 12.773429"
   fill="none"
   version="1.1"
   id="svg4"
   sodipodi:docname="star-full.svg"
   inkscape:version="1.1 (c68e22c387, 2021-05-23)"
   xmlns:inkscape="http://www.inkscape.org/namespaces/inkscape"
   xmlns:sodipodi="http://sodipodi.sourceforge.net/DTD/sodipodi-0.dtd"
   xmlns="http://www.w3.org/2000/svg"
   xmlns:svg="http://www.w3.org/2000/svg">
  <defs
     id="defs8" />
  <sodipodi:namedview
     id="namedview6"
     pagecolor="#ffffff"
     bordercolor="#666666"
     borderopacity="1.0"
     inkscape:pageshadow="2"
     inkscape:pageopacity="0.0"
     inkscape:pagecheckerboard="0"
     showgrid="false"
     fit-margin-top="0"
     fit-margin-left="0"
     fit-margin-right="0"
     fit-margin-bottom="0"
     inkscape:zoom="25.375"
     inkscape:cx="6.7192118"
     inkscape:cy="6.4039409"
     inkscape:window-width="1920"
     inkscape:window-height="1001"
     inkscape:window-x="-9"
     inkscape:window-y="-9"
     inkscape:window-maximized="1"
     inkscape:current-layer="svg4" />
  <path
     id="path2"
     style="color:#000000;clip-rule:evenodd;fill:#fdbc15;fill-rule:evenodd;-inkscape-stroke:none"
     d="M 6.7148438,0 C 6.5617237,0 6.4125425,0.04813187 6.2890625,0.13867188 6.1655825,0.22921188 6.0733837,0.35787625 6.0273438,0.50390625 L 4.7539062,4.296875 H 0.75390625 c -0.15859,-0.006 -0.3153825,0.039729 -0.4453125,0.1308594 -0.12993,0.09113 -0.2250675,0.2218968 -0.2734375,0.3730468 -0.04837,0.15116 -0.04703063,0.3152038 0.0058594,0.4648438 0.05288,0.14963 0.15448938,0.2780444 0.28710938,0.3652344 L 3.5742188,7.984375 2.3339844,11.802734 c -0.04904,0.1455 -0.050646,0.302919 -0.00391,0.449219 0.04675,0.1463 0.1393319,0.275135 0.2636719,0.365235 0.12434,0.0901 0.2741844,0.137818 0.4277344,0.136718 0.15355,-0.0012 0.3027812,-0.05263 0.4257812,-0.144531 L 6.6933594,10.25 9.9472656,12.630859 c 0.1230004,0.0919 0.2722814,0.141378 0.4257814,0.142579 0.1536,0.0011 0.303434,-0.04662 0.427734,-0.136719 0.1244,-0.09 0.216872,-0.216981 0.263672,-0.363281 0.0467,-0.1463 0.04509,-0.303719 -0.0039,-0.449219 L 9.8203125,8.0039062 13.068359,5.6503906 c 0.1326,-0.08719 0.232257,-0.2156043 0.285157,-0.3652344 0.0528,-0.14964 0.05426,-0.3117306 0.0059,-0.4628906 -0.0484,-0.15115 -0.143538,-0.28387 -0.273437,-0.375 -0.1299,-0.09113 -0.286713,-0.1368594 -0.445313,-0.1308594 h -4 L 7.4003906,0.50390625 C 7.3543406,0.35787625 7.264105,0.22921188 7.140625,0.13867188 7.017145,0.04813187 6.8679638,0 6.7148438,0 Z" />
</svg>
