<?xml version="1.0" encoding="UTF-8" standalone="no"?>
<!-- Generator: Adobe Illustrator 23.0.3, SVG Export Plug-In . SVG Version: 6.00 Build 0)  -->

<svg
   version="1.1"
   id="Layer_1"
   x="0px"
   y="0px"
   viewBox="0 0 14.35 13.725"
   xml:space="preserve"
   sodipodi:docname="star-light.svg"
   width="14.35"
   height="13.725"
   inkscape:version="1.1 (c68e22c387, 2021-05-23)"
   xmlns:inkscape="http://www.inkscape.org/namespaces/inkscape"
   xmlns:sodipodi="http://sodipodi.sourceforge.net/DTD/sodipodi-0.dtd"
   xmlns="http://www.w3.org/2000/svg"
   xmlns:svg="http://www.w3.org/2000/svg"><defs
   id="defs7" /><sodipodi:namedview
   id="namedview5"
   pagecolor="#ffffff"
   bordercolor="#666666"
   borderopacity="1.0"
   inkscape:pageshadow="2"
   inkscape:pageopacity="0.0"
   inkscape:pagecheckerboard="0"
   showgrid="false"
   fit-margin-top="0"
   fit-margin-left="0"
   fit-margin-right="0"
   fit-margin-bottom="0"
   inkscape:zoom="25.375"
   inkscape:cx="7.1527094"
   inkscape:cy="6.8374384"
   inkscape:window-width="1920"
   inkscape:window-height="1001"
   inkscape:window-x="-9"
   inkscape:window-y="-9"
   inkscape:window-maximized="1"
   inkscape:current-layer="Layer_1" />
<path
   style="color:#000000;fill:#000000;-inkscape-stroke:none"
   d="M 7.0742188,0 C 6.8242188,0 6.575,0.07460938 6.375,0.22460938 c -0.2,0.1 -0.3003906,0.39960937 -0.4003906,0.59960937 L 4.875,4.2246094 H 1.2753906 c -0.29999998,0 -0.60078123,0.1011719 -0.80078122,0.2011718 C 0.27460937,4.6257813 0.07421875,4.825 0.07421875,5.125 c -0.1,0.3 -0.1,0.5007813 0,0.8007812 0.1,0.2000001 0.20039062,0.4000001 0.40039063,0.5 L 3.4746094,8.5253906 2.375,12.025391 c -0.1,0.3 -0.1,0.598828 0,0.798828 0,0.2 0.2003906,0.401562 0.4003906,0.601562 0.2,0.1 0.3992188,0.199219 0.6992188,0.199219 0.2,0 0.5011718,7.81e-4 0.7011718,-0.199219 l 3,-2.101562 2.9999998,2.201172 c 0.2,0.1 0.399219,0.199218 0.699219,0.199218 0.2,0 0.499219,-0.09922 0.699219,-0.199218 0.2,-0.1 0.30039,-0.39961 0.40039,-0.59961 0.1,-0.3 0.1,-0.600781 0,-0.800781 L 10.875,8.625 13.775391,6.5253906 c 0.2,-0.1 0.4,-0.3996093 0.5,-0.5996094 0.1,-0.3 0.1,-0.5007812 0,-0.8007812 -0.1,-0.2 -0.3,-0.3996094 -0.5,-0.5996094 -0.2,-0.1 -0.401172,-0.2011718 -0.701172,-0.2011718 H 9.4746094 L 8.375,0.82421875 c -0.1,-0.3 -0.2996094,-0.49960938 -0.5996094,-0.59960937 C 7.5753906,0.07460938 7.3242188,0 7.0742188,0 Z M 7.125,0.94921875 c 0.05,0 0.1003906,0.0261719 0.1503906,0.0761718 0.1,0 0.099609,0.099609 0.099609,0.099609 l 1.3007812,4 c 0.1000001,0.2 0.3000001,0.3007813 0.5,0.3007813 h 4.0000002 0.09961 c 0.1,1e-7 0.09961,0.099609 0.09961,0.099609 V 5.625 c 0,0 3.91e-4,0.099609 -0.09961,0.099609 L 10.074219,8.125 C 9.8742187,8.325 9.775,8.5246094 9.875,8.7246094 l 1.199219,3.8007816 V 12.625 l -0.09961,0.09961 H 10.875 10.775391 L 7.4746094,10.32422 c -0.1,-0.1 -0.1988282,-0.09961 -0.2988282,-0.09961 -0.1,0 -0.2007812,3.91e-4 -0.3007812,-0.09961 L 3.5742188,12.525391 H 3.4746094 3.375 c -0.1,0 -0.099609,-0.09961 -0.099609,-0.09961 V 12.324219 L 4.4746094,8.5253906 c 0,-0.2 7.812e-4,-0.4996094 -0.1992188,-0.5996094 L 0.97460938,5.5253906 C 0.87460937,5.5253906 0.875,5.4257812 0.875,5.4257812 V 5.3242188 l 0.0996094,-0.099609 h 0.2011718 4 c 0.3000001,0 0.5,-0.098828 0.5,-0.2988282 L 6.875,1.125 6.9746094,1.0253906 c 0.05,-0.05 0.1003906,-0.0761718 0.1503906,-0.0761718 z"
   id="path2" />
</svg>
