<?xml version="1.0" encoding="UTF-8" standalone="no"?>
<!-- Generator: Adobe Illustrator 23.0.3, SVG Export Plug-In . SVG Version: 6.00 Build 0)  -->

<svg
   version="1.1"
   id="Layer_1"
   x="0px"
   y="0px"
   viewBox="0 0 20.502968 22.700001"
   xml:space="preserve"
   sodipodi:docname="user.svg"
   width="20.502968"
   height="22.700001"
   inkscape:version="1.1 (c68e22c387, 2021-05-23)"
   xmlns:inkscape="http://www.inkscape.org/namespaces/inkscape"
   xmlns:sodipodi="http://sodipodi.sourceforge.net/DTD/sodipodi-0.dtd"
   xmlns="http://www.w3.org/2000/svg"
   xmlns:svg="http://www.w3.org/2000/svg"><defs
   id="defs9" /><sodipodi:namedview
   id="namedview7"
   pagecolor="#ffffff"
   bordercolor="#666666"
   borderopacity="1.0"
   inkscape:pageshadow="2"
   inkscape:pageopacity="0.0"
   inkscape:pagecheckerboard="0"
   showgrid="false"
   fit-margin-top="0"
   fit-margin-left="0"
   fit-margin-right="0"
   fit-margin-bottom="0"
   inkscape:zoom="23.923779"
   inkscape:cx="10.261757"
   inkscape:cy="11.390341"
   inkscape:window-width="1920"
   inkscape:window-height="1001"
   inkscape:window-x="-9"
   inkscape:window-y="-9"
   inkscape:window-maximized="1"
   inkscape:current-layer="Layer_1" />
<style
   type="text/css"
   id="style2">
	.st0{fill:#151515;}
</style>
<path
   id="path4"
   style="color:#000000;fill:#151515;-inkscape-stroke:none"
   d="M 10.152344,0 C 6.6523435,0 4.0507812,2.9003906 4.0507812,6.4003906 c 0,1.9 0.9011719,3.5988281 2.2011719,4.7988284 -2.5,1.3 -4.5003906,3.801562 -5.4003906,7.101562 l -0.80078125,2.898438 c -0.2,0.5 0.20039063,1.20039 0.90039063,1.40039 0.60000002,0.2 1.30000002,-0.20039 1.50000002,-0.90039 l 0.8007812,-2.798828 c 1.3,-4.6 4.3999997,-6.201172 6.9999999,-6.201172 2.6,0 5.7,1.601172 7,6.201172 l 0.798828,2.90039 c 0.2,0.6 0.701172,0.898438 1.201172,0.898438 h 0.298828 c 0.7,-0.3 1.100391,-0.99961 0.900391,-1.59961 l -0.798828,-2.90039 c -0.9,-3.3 -2.900391,-5.79961 -5.400391,-7.09961 1.3,-1.0999996 2.199219,-2.8988277 2.199219,-4.7988278 C 16.451172,2.9007813 13.652344,0 10.152344,0 Z m 0.09961,2.5996094 c 2.1,0 3.798828,1.7007812 3.798828,3.8007812 0,2.1 -1.698828,3.7988284 -3.798828,3.7988284 -2.1000002,-0.1 -3.7011718,-1.7988284 -3.7011718,-3.7988284 0,-2 1.6011716,-3.8007812 3.7011718,-3.8007812 z" />
</svg>
